<svg width="547" height="103" viewBox="0 0 547 103" fill="none" xmlns="http://www.w3.org/2000/svg">
<path d="M55.265 2.10741C63.4913 2.10741 70.5799 3.51236 76.5308 6.32225C82.5693 9.13214 87.1638 13.1275 90.3143 18.3082C93.4648 23.4011 95.04 29.3721 95.04 36.2212C95.04 42.9825 93.4648 48.9535 90.3143 54.1343C87.1638 59.2272 82.5693 63.1786 76.5308 65.9885C70.5799 68.7984 63.4913 70.2033 55.265 70.2033H12.602V48.3389H53.5585C57.9342 48.3389 61.3472 47.2852 63.7976 45.1778C66.248 42.9825 67.4732 39.997 67.4732 36.2212C67.4732 32.3576 66.248 29.3721 63.7976 27.2647C61.3472 25.0695 57.9342 23.9719 53.5585 23.9719H14.9649L27.173 11.3274V100.893H0V2.10741H55.265Z" fill="#262626"/>
<path d="M102.451 68.4911H130.149C130.586 71.2131 131.855 73.584 133.956 75.6036C136.056 77.6232 138.856 79.2038 142.357 80.3453C145.945 81.399 150.146 81.9258 154.959 81.9258C161.61 81.9258 166.861 81.0916 170.711 79.4233C174.562 77.6671 176.487 75.1206 176.487 71.7839C176.487 69.2374 175.393 67.2617 173.206 65.8568C171.018 64.4518 166.817 63.442 160.604 62.8274L142.226 61.1151C128.661 59.8858 118.816 56.8125 112.69 51.8951C106.564 46.89 103.501 40.1726 103.501 31.743C103.501 24.8939 105.47 19.0985 109.408 14.3568C113.434 9.61509 119.035 6.05882 126.211 3.68798C133.474 1.22933 141.919 0 151.546 0C160.997 0 169.399 1.36104 176.75 4.08312C184.101 6.71739 189.921 10.4932 194.209 15.4105C198.585 20.3278 200.947 26.0354 201.298 32.5332H173.731C173.381 30.1624 172.243 28.1428 170.318 26.4744C168.48 24.7182 165.942 23.4011 162.704 22.523C159.466 21.5571 155.572 21.0742 151.021 21.0742C144.895 21.0742 140.038 21.9084 136.45 23.5767C132.862 25.1573 131.068 27.5281 131.068 30.6893C131.068 32.9723 132.118 34.8163 134.218 36.2212C136.406 37.6262 140.3 38.5921 145.901 39.1189L165.461 41.0946C174.825 41.9727 182.307 43.5094 187.908 45.7046C193.509 47.812 197.578 50.7536 200.116 54.5294C202.654 58.3052 203.923 63.003 203.923 68.6228C203.923 75.5597 201.866 81.6185 197.753 86.7992C193.64 91.8922 187.864 95.8875 180.425 98.7852C172.987 101.595 164.323 103 154.434 103C144.282 103 135.312 101.595 127.523 98.7852C119.822 95.8875 113.784 91.8483 109.408 86.6675C105.032 81.399 102.713 75.3402 102.451 68.4911Z" fill="#262626"/>
<path d="M246.25 100.893V52.8171H273.554V100.893H246.25ZM200.042 2.10741H230.234L265.94 47.6803H253.732L289.306 2.10741H319.499L268.566 67.0422L251.107 67.3056L200.042 2.10741Z" fill="#262626"/>
<path d="M501.406 2.10741V100.893H475.546V11.8542L481.322 12.5128L443.253 100.893H415.686L377.486 12.7762L383.394 12.1176V100.893H357.533V2.10741H399.54L434.852 86.931H424.35L459.399 2.10741H501.406Z" fill="url(#paint0_linear_1249_647)"/>
<path d="M519.827 2.10741H547V100.893H519.827V2.10741Z" fill="url(#paint1_linear_1249_647)"/>
<defs>
<linearGradient id="paint0_linear_1249_647" x1="355.5" y1="52" x2="547" y2="51.5" gradientUnits="userSpaceOnUse">
<stop stop-color="#347AEC"/>
<stop offset="1" stop-color="#6764E7"/>
</linearGradient>
<linearGradient id="paint1_linear_1249_647" x1="355.5" y1="52" x2="547" y2="51.5" gradientUnits="userSpaceOnUse">
<stop stop-color="#347AEC"/>
<stop offset="1" stop-color="#6764E7"/>
</linearGradient>
</defs>
</svg>
