<svg width="43" height="41" viewBox="0 0 43 41" fill="none" xmlns="http://www.w3.org/2000/svg">
<path id="Vector" d="M23.0141 2.93133L27.7954 12.4807C27.9041 12.7231 28.0752 12.9331 28.2915 13.0897C28.5079 13.2463 28.7619 13.344 29.0283 13.3732L39.5832 14.9202C39.8888 14.959 40.1769 15.0831 40.4139 15.2779C40.6509 15.4727 40.827 15.7302 40.9216 16.0203C41.0162 16.3104 41.0254 16.6212 40.9481 16.9163C40.8709 17.2113 40.7104 17.4786 40.4853 17.6868L32.8774 25.1538C32.6832 25.3333 32.5375 25.5579 32.4535 25.8073C32.3694 26.0567 32.3498 26.3229 32.3962 26.5817L34.2306 37.0831C34.2837 37.3849 34.2501 37.6953 34.1337 37.9791C34.0172 38.2629 33.8226 38.5087 33.572 38.6885C33.3213 38.8683 33.0247 38.9748 32.7158 38.9961C32.407 39.0173 32.0983 38.9523 31.8249 38.8086L22.3225 33.8405C22.0792 33.7223 21.8117 33.6609 21.5407 33.6609C21.2696 33.6609 21.0021 33.7223 20.7588 33.8405L11.2564 38.8086C10.983 38.9523 10.6744 39.0173 10.3655 38.9961C10.0566 38.9748 9.76001 38.8683 9.50935 38.6885C9.25869 38.5087 9.06407 38.2629 8.94764 37.9791C8.83121 37.6953 8.79764 37.3849 8.85075 37.0831L10.6851 26.4628C10.7316 26.2039 10.7119 25.9377 10.6279 25.6883C10.5438 25.4389 10.3981 25.2143 10.2039 25.0348L2.5058 17.6868C2.27805 17.4729 2.11788 17.1983 2.0447 16.8961C1.97152 16.594 1.98847 16.2774 2.09349 15.9846C2.19851 15.6918 2.38709 15.4354 2.6364 15.2465C2.88571 15.0576 3.18504 14.9442 3.49814 14.9202L14.053 13.3732C14.3194 13.344 14.5735 13.2463 14.7898 13.0897C15.0061 12.9331 15.1772 12.7231 15.2859 12.4807L20.0672 2.93133C20.1974 2.65321 20.4053 2.41773 20.6664 2.25271C20.9275 2.08769 21.2308 2 21.5407 2C21.8505 2 22.1538 2.08769 22.4149 2.25271C22.676 2.41773 22.8839 2.65321 23.0141 2.93133V2.93133Z" stroke="url(#paint0_linear_1257_5371)" stroke-width="3" stroke-linecap="round" stroke-linejoin="round"/>
<defs>
<linearGradient id="paint0_linear_1257_5371" x1="21.5" y1="2" x2="21.5" y2="39" gradientUnits="userSpaceOnUse">
<stop stop-color="#347AEC"/>
<stop offset="1" stop-color="#6764E7"/>
</linearGradient>
</defs>
</svg>
