<svg width="47" height="47" viewBox="0 0 47 47" fill="none" xmlns="http://www.w3.org/2000/svg">
<rect y="0.218018" width="45.9836" height="45.9836" rx="22.9918" transform="rotate(-0.271569 0 0.218018)" fill="#347AEC"/>
<path d="M25.0075 23.511L29.2864 23.4907L29.9375 19.1142L24.9859 19.1377L24.9745 16.7475C24.9659 14.9307 25.5483 13.3169 27.2374 13.3089L29.9517 13.2961L29.9336 9.47962C29.4564 9.41709 28.4471 9.28003 26.5413 9.28907C22.5618 9.30793 20.2387 11.4334 20.2615 16.2506L20.2753 19.16L16.1843 19.1794L16.2051 23.5527L20.296 23.5333L20.353 35.5535C21.1638 35.6722 21.9848 35.7515 22.8272 35.7475C23.5886 35.7439 24.3315 35.6704 25.0646 35.5671L25.0075 23.511Z" fill="white"/>
</svg>
