<svg width="47" height="47" viewBox="0 0 47 47" fill="none" xmlns="http://www.w3.org/2000/svg">
<rect y="0.218018" width="45.9836" height="45.9836" rx="22.9918" transform="rotate(-0.271569 0 0.218018)" fill="#347AEC"/>
<path d="M23.0559 13.6825C26.1029 13.668 26.5184 13.6661 27.765 13.6602C28.873 13.6549 29.4283 13.9293 29.8445 14.0658C30.3998 14.3402 30.816 14.4767 31.2335 14.8903C31.6509 15.3038 31.9299 15.718 32.071 16.2714C32.2115 16.6862 32.3526 17.2396 32.4964 18.347C32.5023 19.5935 32.5036 19.8705 32.5187 23.0561C32.5338 26.2416 32.5351 26.5187 32.541 27.7652C32.5463 28.8732 32.2719 29.4285 32.1354 29.8447C31.861 30.4 31.7245 30.8162 31.3109 31.2337C30.8974 31.6512 30.4832 31.9301 29.9298 32.0713C29.515 32.2117 28.9616 32.3529 27.8542 32.4966C26.6077 32.5025 26.3307 32.5038 23.1451 32.5189C19.9596 32.534 19.6826 32.5353 18.436 32.5413C17.328 32.5465 16.7727 32.2721 16.3565 32.1356C15.8012 31.8612 15.385 31.7247 14.9675 31.3111C14.5501 30.8976 14.2711 30.4834 14.1299 29.93C13.9895 29.5152 13.8483 28.9618 13.7046 27.8545C13.6987 26.6079 13.6974 26.3309 13.6823 23.1454C13.6672 19.9598 13.6659 19.6828 13.6599 18.4362C13.6547 17.3282 13.9291 16.7729 14.0656 16.3567C14.34 15.8014 14.4765 15.3852 14.8901 14.9677C15.3036 14.5503 15.7178 14.2713 16.2712 14.1302C16.686 13.9897 17.2394 13.8486 18.3467 13.7048C19.5933 13.6989 20.0088 13.6969 23.0559 13.6825ZM23.046 11.6049C19.8604 11.62 19.5834 11.6213 18.3369 11.6273C17.0904 11.6332 16.2607 11.9141 15.5695 12.1944C14.8783 12.4747 14.1877 12.8935 13.4985 13.5893C12.8092 14.2851 12.5349 14.8404 12.1233 15.6734C11.8496 16.3672 11.715 17.1989 11.5824 18.4461C11.5883 19.6926 11.5903 20.1081 11.6047 23.1552C11.6198 26.3408 11.6211 26.6178 11.627 27.8643C11.6329 29.1108 11.9139 29.9405 12.1942 30.6317C12.4745 31.323 12.8933 32.0135 13.5891 32.7027C14.2849 33.392 14.8402 33.6664 15.6732 34.0779C16.367 34.3516 17.1987 34.4862 18.4459 34.6188C19.6924 34.6129 20.1079 34.6109 23.155 34.5965C26.2021 34.582 26.6176 34.5801 27.8641 34.5742C29.1106 34.5683 29.9403 34.2873 30.6315 34.007C31.3227 33.7267 32.0133 33.3079 32.7025 32.6121C33.3918 31.9163 33.6661 31.361 34.0777 30.528C34.3514 29.8342 34.486 29.0025 34.6186 27.7553C34.6127 26.5088 34.6107 26.0933 34.5963 23.0462C34.5818 19.9991 34.5799 19.5836 34.5739 18.3371C34.568 17.0906 34.2871 16.2609 34.0068 15.5697C33.7265 14.8785 33.3077 14.1879 32.6119 13.4987C31.9161 12.8095 31.3608 12.5351 30.5278 12.1235C29.834 11.8498 29.0023 11.7152 27.7551 11.5826C26.5086 11.5885 26.2316 11.5898 23.046 11.6049Z" fill="white"/>
<path d="M23.0723 17.1451C19.7482 17.1608 17.1291 19.8049 17.1449 23.1289C17.1606 26.453 19.8046 29.0721 23.1287 29.0564C26.4528 29.0406 29.0719 26.3966 29.0561 23.0725C29.0404 19.7484 26.3963 17.1293 23.0723 17.1451ZM23.1189 26.9788C21.0413 26.9886 19.2329 25.3351 19.2224 23.1191C19.2126 21.0415 20.8661 19.2331 23.0821 19.2226C25.1597 19.2128 26.9681 20.8663 26.9786 23.0823C26.9884 25.1599 25.1964 26.969 23.1189 26.9788Z" fill="white"/>
<path d="M29.1723 18.3627C29.9373 18.3591 30.5544 17.736 30.5508 16.9711C30.5472 16.2062 29.9241 15.589 29.1592 15.5926C28.3943 15.5963 27.7771 16.2193 27.7807 16.9842C27.7843 17.7492 28.4074 18.3663 29.1723 18.3627Z" fill="white"/>
</svg>
