<svg width="47" height="47" viewBox="0 0 47 47" fill="none" xmlns="http://www.w3.org/2000/svg">
<rect y="0.218018" width="45.9836" height="45.9836" rx="22.9918" transform="rotate(-0.271569 0 0.218018)" fill="#347AEC"/>
<path d="M32.3012 23.9128L32.3312 30.2535L28.6196 30.2711L28.5914 24.317C28.5844 22.8478 28.0384 21.8451 26.7238 21.8514C25.7186 21.8561 25.1033 22.555 24.8742 23.1747C24.798 23.407 24.7222 23.7167 24.724 24.1033L24.7533 30.2894L21.0417 30.307C21.0417 30.307 21.0714 20.2543 20.9893 19.2494L24.7009 19.2318L24.7082 20.7783C25.1685 20.0029 26.0913 18.9159 28.0245 18.9067C30.4216 18.8954 32.2851 20.5104 32.3012 23.9128ZM17.0977 13.9322C15.8605 13.9381 15.0139 14.7927 15.0191 15.8753C15.0242 16.9578 15.8015 17.8048 17.0387 17.7989C18.3532 17.7927 19.1225 16.9384 19.1173 15.8559C19.1891 14.6956 18.4122 13.926 17.0977 13.9322ZM15.3196 30.3341L19.0312 30.3165L18.9788 19.2589L15.2672 19.2765L15.3196 30.3341Z" fill="white"/>
</svg>
