<svg width="22" height="22" viewBox="0 0 22 22" fill="none" xmlns="http://www.w3.org/2000/svg">
<path d="M10 11.5073V20.5073" stroke="#5E5E5E" stroke-width="2" stroke-linecap="round" stroke-linejoin="round"/>
<path d="M7 14.5073L10 11.5073L13 14.5073" stroke="#5E5E5E" stroke-width="2" stroke-linecap="round" stroke-linejoin="round"/>
<path d="M18.25 12.4073C18.8072 12.0859 19.2889 11.6487 19.6628 11.1253C20.0367 10.6018 20.2941 10.0043 20.4175 9.37302C20.5409 8.74172 20.5275 8.0913 20.3783 7.4656C20.2291 6.83989 19.9474 6.25346 19.5524 5.74582C19.1573 5.23819 18.658 4.82115 18.0881 4.52282C17.5182 4.2245 16.891 4.05182 16.2487 4.01642C15.6064 3.98103 14.964 4.08374 14.3648 4.31764C13.7656 4.55154 13.2235 4.91119 12.775 5.37234C12.3818 3.97709 11.4967 2.77139 10.2834 1.97812C9.07009 1.18485 7.61063 0.857662 6.1748 1.05703C4.73897 1.2564 3.42386 1.96885 2.4726 3.06268C1.52133 4.1565 0.998235 5.55774 1 7.00734C1.00107 8.37102 1.46664 9.69367 2.32 10.7573" stroke="#5E5E5E" stroke-width="2" stroke-linecap="round" stroke-linejoin="round"/>
</svg>
