<svg width="56" height="53" viewBox="0 0 56 53" fill="none" xmlns="http://www.w3.org/2000/svg">
<g clip-path="url(#clip0_1467_1973)">
<path d="M4.62117 47.9737V49.4566H1.75604V51.37H4.95621V52.8648H0V44.8046H4.79447V46.2994H1.75604V47.9737H4.62117Z" fill="black"/>
<path d="M10.2034 50.796H7.9621L7.41911 52.8648H5.59375L7.97366 44.8046H10.2727L12.6988 52.8648H10.8041L10.2034 50.796ZM8.21624 49.4326H9.93766L9.45244 47.7225C9.40622 47.5312 9.33302 47.2402 9.2329 46.8495C9.14053 46.4509 9.08657 46.2236 9.07121 46.1679H9.03654C8.85167 47.0129 8.73612 47.5312 8.68991 47.7225L8.21624 49.4326Z" fill="black"/>
<path d="M13.7415 52.8648V44.9241C14.373 44.8045 15.1548 44.7448 16.0867 44.7448C17.2574 44.7448 18.0969 44.96 18.6052 45.3905C19.0905 45.7812 19.3331 46.3433 19.3331 47.0767C19.3331 47.5551 19.1945 47.9697 18.9172 48.3204C18.6476 48.6712 18.3279 48.9144 17.9583 49.05V49.0858C18.4435 49.2851 18.7901 49.7834 18.998 50.5806C19.0443 50.756 19.1174 51.0471 19.2175 51.4537C19.3177 51.8603 19.3985 52.1752 19.4602 52.3984C19.5218 52.6136 19.5757 52.7691 19.6219 52.8648H17.8196C17.6733 52.5698 17.4961 51.944 17.2882 50.9872C17.1804 50.493 17.034 50.1581 16.8492 49.9827C16.6644 49.7994 16.3832 49.7036 16.0058 49.6957H15.4859V52.8648H13.7415ZM15.4859 46.1679V48.3802H16.1791C16.6181 48.3802 16.9609 48.2766 17.2073 48.0693C17.4538 47.862 17.577 47.579 17.577 47.2202C17.577 46.8615 17.4615 46.5864 17.2305 46.3951C17.007 46.2037 16.6913 46.108 16.2831 46.108C15.8903 46.108 15.6246 46.128 15.4859 46.1679Z" fill="black"/>
<path d="M22.925 52.8648V44.9122C23.5566 44.8006 24.3499 44.7448 25.305 44.7448C26.3755 44.7448 27.1688 44.9639 27.6849 45.4025C28.2394 45.833 28.5166 46.4508 28.5166 47.2561C28.5166 48.0853 28.2779 48.723 27.8004 49.1695C27.2073 49.7356 26.364 50.0186 25.2703 50.0186C25.0162 50.0186 24.8159 50.0026 24.6695 49.9708V52.8648H22.925ZM24.6695 46.1917V48.5716C24.8005 48.6035 24.9969 48.6194 25.2587 48.6194C25.7285 48.6194 26.0983 48.5038 26.3678 48.2726C26.6374 48.0414 26.7722 47.7225 26.7722 47.3159C26.7722 46.9412 26.649 46.6501 26.4025 46.4429C26.1637 46.2356 25.8248 46.1319 25.3858 46.1319C25.0469 46.1319 24.8082 46.1519 24.6695 46.1917Z" fill="black"/>
<path d="M29.6495 52.8648V44.8046H31.4056V51.3341H34.5017V52.8648H29.6495Z" fill="black"/>
<path d="M35.1775 44.8046H36.9335V49.4326C36.9335 50.1262 37.0529 50.6525 37.2916 51.0112C37.5381 51.362 37.8885 51.5374 38.343 51.5374C39.298 51.5374 39.7755 50.8358 39.7755 49.4326V44.8046H41.5316V49.325C41.5316 50.5448 41.2504 51.4617 40.6882 52.0756C40.126 52.6894 39.325 52.9964 38.2852 52.9964C36.2134 52.9964 35.1775 51.7646 35.1775 49.3011V44.8046Z" fill="black"/>
<path d="M49.5567 48.2487V52.4941C48.6941 52.797 47.8277 52.9485 46.9574 52.9485C45.5787 52.9485 44.5236 52.5898 43.7918 51.8722C43.0601 51.1388 42.6943 50.1581 42.6943 48.9303C42.702 47.6229 43.1179 46.5943 43.942 45.8449C44.7661 45.0955 45.8328 44.7208 47.1422 44.7208C48.0434 44.7208 48.7635 44.8484 49.3026 45.1035L48.9329 46.5745C48.4477 46.3433 47.8469 46.2277 47.1306 46.2277C46.3605 46.2277 45.7366 46.4508 45.259 46.8973C44.7816 47.3438 44.5428 47.9895 44.5428 48.8347C44.5428 49.6559 44.7661 50.3016 45.2128 50.772C45.6673 51.2424 46.2642 51.4776 47.0036 51.4776C47.404 51.4776 47.689 51.4417 47.8585 51.37V49.6718H46.6569V48.2487H49.5567Z" fill="black"/>
<path d="M50.6271 52.4821L50.9852 50.9872C51.6014 51.3221 52.2522 51.4895 52.9376 51.4895C53.3382 51.4895 53.6424 51.4137 53.8503 51.2623C54.066 51.1028 54.1738 50.8876 54.1738 50.6165C54.1738 50.3694 54.0737 50.162 53.8734 49.9947C53.6809 49.8272 53.3459 49.6598 52.8683 49.4924C51.4358 48.9662 50.7195 48.1689 50.7195 47.1006C50.7195 46.399 50.9852 45.821 51.5166 45.3665C52.0558 44.9122 52.7721 44.6849 53.6655 44.6849C54.4357 44.6849 55.0981 44.8204 55.6526 45.0915L55.2598 46.5505C54.7669 46.2954 54.2277 46.1678 53.6424 46.1678C53.2804 46.1678 52.9993 46.2435 52.799 46.3951C52.6064 46.5465 52.5102 46.7299 52.5102 46.9451C52.5102 47.1843 52.6142 47.3796 52.8221 47.5311C53.0301 47.6826 53.4074 47.866 53.9543 48.0813C54.6475 48.3443 55.1558 48.6712 55.4793 49.0619C55.8028 49.4445 55.9645 49.9189 55.9645 50.485C55.9645 51.2025 55.695 51.8004 55.1558 52.2788C54.6244 52.7492 53.8503 52.9843 52.8337 52.9843C52.4101 52.9843 51.9942 52.9366 51.586 52.8408C51.1854 52.7372 50.8658 52.6177 50.6271 52.4821Z" fill="black"/>
<path fill-rule="evenodd" clip-rule="evenodd" d="M26.9126 14.7014C26.9126 22.6897 20.9083 29.3453 14.1816 29.3581C13.864 29.3877 13.5437 29.4027 13.221 29.4027C11.8031 29.4027 10.4341 29.1115 9.15629 28.5769V41.4677H0V13.8523H0.00292484C0.149668 6.00887 5.80431 0 12.4508 0C19.1854 0 26.9126 6.70542 26.9126 14.7014ZM15.7309 19.2674C16.6327 18.2181 17.2857 16.6549 17.2857 14.8354C17.2857 10.9092 14.622 9.20513 13.221 9.20513C11.8908 9.20513 9.24184 10.8278 9.24184 14.8354C9.24184 16.6922 9.89815 18.2622 10.78 19.2981C11.6591 20.3307 12.5622 20.6445 13.221 20.6445C13.8911 20.6445 14.8267 20.3195 15.7309 19.2674Z" fill="black"/>
<path fill-rule="evenodd" clip-rule="evenodd" d="M29.0089 14.7014C29.0089 22.6897 35.0132 29.3453 41.7399 29.3581C42.0574 29.3877 42.3777 29.4027 42.7005 29.4027C44.1184 29.4027 45.4874 29.1115 46.7652 28.5769V41.4677H55.9215V13.8523H55.9185C55.7718 6.00887 50.1172 0 43.4706 0C36.7361 0 29.0089 6.70542 29.0089 14.7014ZM40.1905 19.2674C39.2887 18.2181 38.6358 16.6549 38.6358 14.8354C38.6358 10.9092 41.2995 9.20513 42.7005 9.20513C44.0306 9.20513 46.6796 10.8278 46.6796 14.8354C46.6796 16.6922 46.0233 18.2622 45.1414 19.2981C44.2624 20.3307 43.3592 20.6445 42.7005 20.6445C42.0304 20.6445 41.0947 20.3195 40.1905 19.2674Z" fill="black"/>
</g>
<defs>
<clipPath id="clip0_1467_1973">
<rect width="56" height="53" fill="white"/>
</clipPath>
</defs>
</svg>
