<svg width="145" height="44" viewBox="0 0 145 44" fill="none" xmlns="http://www.w3.org/2000/svg">
<path d="M21.2421 43.1417C32.8913 43.1417 42.3348 33.6982 42.3348 22.049C42.3348 10.3998 32.8913 0.956299 21.2421 0.956299C9.59294 0.956299 0.149414 10.3998 0.149414 22.049C0.149414 33.6982 9.59294 43.1417 21.2421 43.1417Z" fill="white"/>
<path fill-rule="evenodd" clip-rule="evenodd" d="M21.2421 0.955811C32.8913 0.955811 42.3348 10.3993 42.3348 22.0485C42.3348 25.6764 41.4189 29.0904 39.8057 32.0718C37.5428 27.0936 34.0693 23.1921 29.385 20.3668C24.5899 17.0341 18.9879 15.113 12.5791 14.6035C16.4943 19.5492 17.5409 26.0552 15.719 34.1212C16.2705 34.8857 17.8679 36.9249 20.5112 40.2391C17.6652 38.8221 15.7188 37.9012 14.6717 37.4765C14.2677 38.6317 13.8097 40.1614 13.2976 41.5945C5.58564 38.4558 0.149414 30.887 0.149414 22.0485C0.149414 10.3993 9.59294 0.955811 21.2421 0.955811Z" fill="#22C6CA"/>
<path d="M58.3894 30.6364V22.3349V14.0334H56.1757V30.6364H58.3894ZM70.2882 30.6364L61.4333 22.3349L70.2882 14.0334H66.9676L58.3894 22.3349L66.9676 30.6364H70.2882ZM74.9921 30.6364V14.0334H72.7783V30.6364H74.9921ZM85.2302 30.6364V15.9704H90.7646V14.0334H77.4822V15.9704H83.0165V30.6364H85.2302ZM95.4684 30.6364V25.6555H101.003L104.877 30.6364H107.644L103.493 25.1021C105.984 24.2719 107.091 22.3349 107.091 19.8445C107.091 16.5239 104.877 14.0334 101.003 14.0334H93.2547V30.6364H95.4684ZM100.726 23.7185H95.4684V15.9704H100.726C103.216 15.9704 104.877 17.6307 104.877 19.8445C104.877 22.0582 103.216 23.7185 100.726 23.7185ZM117.329 30.9131C121.203 30.9131 124.523 27.8693 124.523 23.1651V14.0334H122.31V23.1651C122.31 26.4857 120.096 28.9761 117.329 28.9761C114.562 28.9761 112.348 26.4857 112.348 23.1651V14.0334H110.134V23.1651C110.134 27.8693 113.455 30.9131 117.329 30.9131ZM130.611 30.6364V19.0143L136.699 25.1021L142.786 19.0143V30.6364H145V13.48L136.699 21.7815L128.397 13.48V30.6364H130.611Z" fill="#14111A"/>
</svg>
