<svg width="108" height="47" viewBox="0 0 108 47" fill="none" xmlns="http://www.w3.org/2000/svg">
<path d="M55.182 46.3692H47.5177V18.5353L55.182 7.66467V46.3692Z" fill="#A066FF"/>
<path fill-rule="evenodd" clip-rule="evenodd" d="M0 46.3686V0H7.68943L27.3453 27.902L47.2452 0H55.0315L47.2487 11.1667L27.2847 39.3941H27.1314L7.20438 11.6259V46.3686H0Z" fill="#131313"/>
<path d="M69.8526 3.0824H66.2217L59.7615 18.7613H62.5672L63.7932 15.8142H72.2811L73.5071 18.7613H76.3364L69.8526 3.0824ZM64.7363 13.5272L67.6599 6.40681C67.8014 6.07672 67.8721 5.74664 67.8721 5.39298V4.70924H68.2022L68.2258 5.46371C68.2258 5.79379 68.2965 6.12388 68.4144 6.43038L71.338 13.5272H64.7363Z" fill="#131313"/>
<path d="M86.3945 12.5605V14.8475H89.3181C88.1156 16.0499 86.3709 16.8044 84.4376 16.8044C80.8302 16.8044 77.9066 14.1637 77.9066 10.9101C77.9066 7.67998 80.8302 5.03932 84.4376 5.03932C85.9937 5.03932 87.4319 5.53445 88.54 6.33607H92.0295C90.3791 4.16696 87.5969 2.75232 84.4376 2.75232C79.392 2.75232 75.3131 6.40681 75.3131 10.9101C75.3131 15.4369 79.392 19.0914 84.4376 19.0914C86.2059 19.0914 87.8563 18.6434 89.2473 17.8654C89.7189 17.606 90.0725 17.2052 90.3083 16.7573L90.4969 16.38L90.8034 16.5451L90.5913 16.9694C90.4262 17.3231 90.3319 17.7239 90.3319 18.1247V18.7613H92.9254V12.5605H86.3945Z" fill="#131313"/>
<path d="M105.574 5.3694V3.0824H94.1623V18.7613H105.574V16.4743H96.7558V10.2735H102.65V7.98649H96.7558V5.3694H105.574Z" fill="#131313"/>
<path d="M72.8941 39.2736C72.8941 39.5565 72.9412 39.8395 73.0355 40.0988L73.3892 41.1598L73.0591 41.2777L72.7055 40.2403C72.6111 39.9573 72.4697 39.698 72.3046 39.4622L63.416 27.8386H60.8225V43.5175H63.416V32.0825C63.416 31.7996 63.3688 31.5167 63.2981 31.2573L62.9209 30.1728L63.2509 30.0549L63.6046 31.1158C63.6989 31.3988 63.8404 31.6345 64.0054 31.8703L72.8941 43.5175H75.5112V27.8386H72.8941V39.2736Z" fill="#131313"/>
<path d="M85.773 41.5606C82.1657 41.5606 79.2421 38.9199 79.2421 35.6663C79.2421 32.4362 82.1657 29.7955 85.773 29.7955C87.3291 29.7955 88.7673 30.2906 89.8755 31.0923H93.3649C91.7145 28.9232 88.9324 27.5085 85.773 27.5085C80.7275 27.5085 76.6486 31.163 76.6486 35.6663C76.6486 40.1931 80.7275 43.8476 85.773 43.8476C88.9324 43.8476 91.7145 42.4094 93.3649 40.2403H89.8755C88.7673 41.0655 87.3291 41.5606 85.773 41.5606Z" fill="#131313"/>
<path d="M105.454 27.7914L101.021 36.7272C100.832 37.0809 100.738 37.4817 100.738 37.8825V38.3305H100.384V37.8825C100.384 37.4817 100.29 37.0809 100.102 36.7272L95.669 27.7914H93.1227L99.2528 40.1224V43.5175H101.87V40.1224L108 27.7914H105.454Z" fill="#131313"/>
</svg>
