<svg width="153" height="20" viewBox="0 0 153 20" fill="none" xmlns="http://www.w3.org/2000/svg">
<g clip-path="url(#clip0_1249_694)">
<path d="M0 19.6692V0.332031H3.18519L12.1544 12.1912H10.5064L19.4439 0.332031H22.6291V19.6692H18.2395V7.58734L18.9949 7.80485L11.3146 17.7272L3.63418 7.81002L4.38954 7.59252V19.6744H0V19.6692Z" fill="black"/>
<path d="M35.5382 20C34.0486 20 32.67 19.7463 31.4022 19.2335C30.1345 18.7209 29.0252 18.0114 28.0797 17.0947C27.1289 16.1834 26.3946 15.1165 25.8717 13.9047C25.3488 12.6929 25.09 11.3775 25.09 9.97409C25.09 8.57069 25.3488 7.23459 25.8717 6.02796C26.3946 4.82134 27.1183 3.77006 28.0533 2.8638C28.9829 1.95754 30.0817 1.25842 31.3494 0.756085C32.6171 0.253755 33.9958 0 35.4853 0C36.975 0 38.322 0.253755 39.5792 0.756085C40.8363 1.25842 41.9403 1.96272 42.8911 2.8638C43.8419 3.77006 44.5709 4.82652 45.0832 6.0435C45.5956 7.26049 45.8544 8.57586 45.8544 10C45.8544 11.4241 45.5956 12.7188 45.0726 13.9306C44.5497 15.1476 43.8261 16.204 42.8911 17.1103C41.9614 18.0165 40.868 18.7209 39.6214 19.2335C38.3747 19.7463 37.0119 20 35.5435 20H35.5382ZM35.4801 16.0538C36.6528 16.0538 37.6775 15.8001 38.5543 15.2875C39.4313 14.7747 40.1126 14.0653 40.6092 13.1486C41.1004 12.2372 41.3487 11.1755 41.3487 9.96891C41.3487 9.07302 41.2113 8.25479 40.9314 7.51425C40.6515 6.77369 40.2499 6.13672 39.7323 5.59814C39.2094 5.05955 38.5861 4.65044 37.8624 4.36562C37.1335 4.08079 36.3411 3.94096 35.4853 3.94096C34.3127 3.94096 33.2827 4.19472 32.3953 4.69705C31.5079 5.19938 30.8264 5.90367 30.3405 6.80476C29.8545 7.70585 29.6115 8.7623 29.6115 9.96891C29.6115 10.8804 29.7489 11.7142 30.0288 12.4599C30.3087 13.2107 30.7103 13.8529 31.2331 14.3915C31.7561 14.9301 32.3742 15.3392 33.0925 15.624C33.8109 15.9088 34.6085 16.0486 35.4801 16.0486V16.0538Z" fill="black"/>
<path d="M48.3635 19.6708V0.33367H51.4641L52.7795 4.19696V19.676H48.3635V19.6708ZM62.5727 19.6708L50.376 5.06697L51.4641 0.328491L63.6873 14.9323L62.5674 19.6708H62.5727ZM62.5727 19.6708L61.4001 15.8076V0.33367H65.8424V19.6708H62.5727Z" fill="black"/>
<path d="M78.7476 20C77.2581 20 75.8794 19.7463 74.6116 19.2335C73.3439 18.7209 72.2347 18.0114 71.2891 17.0947C70.3383 16.1834 69.6041 15.1165 69.0811 13.9047C68.5582 12.6929 68.2993 11.3775 68.2993 9.97409C68.2993 8.57069 68.5582 7.23459 69.0811 6.02796C69.6041 4.82134 70.3277 3.77006 71.2627 2.8638C72.1924 1.95754 73.2911 1.25842 74.5588 0.756085C75.8265 0.253755 77.2052 0 78.6948 0C80.1844 0 81.5313 0.253755 82.7885 0.756085C84.0457 1.25842 85.1497 1.96272 86.1005 2.8638C87.0513 3.77006 87.7802 4.82652 88.2926 6.0435C88.805 7.26049 89.0638 8.57586 89.0638 10C89.0638 11.4241 88.805 12.7188 88.282 13.9306C87.7592 15.1476 87.0354 16.204 86.1005 17.1103C85.1709 18.0165 84.0774 18.7209 82.8308 19.2335C81.5842 19.7463 80.2214 20 78.7529 20H78.7476ZM78.6895 16.0538C79.8621 16.0538 80.887 15.8001 81.7638 15.2875C82.6406 14.7747 83.3221 14.0653 83.8185 13.1486C84.3098 12.2372 84.5581 11.1755 84.5581 9.96891C84.5581 9.07302 84.4208 8.25479 84.1408 7.51425C83.8608 6.77369 83.4594 6.13672 82.9417 5.59814C82.4188 5.05955 81.7955 4.65044 81.0718 4.36562C80.3428 4.08079 79.5506 3.94096 78.6948 3.94096C77.5222 3.94096 76.4921 4.19472 75.6047 4.69705C74.7173 5.19938 74.0359 5.90367 73.5499 6.80476C73.0639 7.70585 72.821 8.7623 72.821 9.96891C72.821 10.8804 72.9583 11.7142 73.2383 12.4599C73.5182 13.2107 73.9196 13.8529 74.4426 14.3915C74.9656 14.9301 75.5836 15.3392 76.302 15.624C77.0203 15.9088 77.818 16.0486 78.6895 16.0486V16.0538Z" fill="black"/>
<path d="M91.5739 19.6692V0.332031H95.9894V19.6692H91.5739ZM94.9806 19.6692V15.8887H105.931V19.6692H94.9806Z" fill="black"/>
<path d="M108.173 19.6692V0.332031H112.589V19.6692H108.173Z" fill="black"/>
<path d="M114.731 4.11246V0.332031H132.696V4.11246H114.731ZM121.509 19.6744V0.575429H125.951V19.6692H121.509V19.6744Z" fill="black"/>
<path d="M134.85 19.6692V0.332031H139.266V19.6692H134.85ZM137.507 11.6164V7.86181H149.715V11.6164H137.507ZM148.262 19.6692V0.332031H152.704V19.6692H148.262Z" fill="black"/>
</g>
<defs>
<clipPath id="clip0_1249_694">
<rect width="153" height="20" fill="white"/>
</clipPath>
</defs>
</svg>
