<svg width="67" height="56" viewBox="0 0 67 56" fill="none" xmlns="http://www.w3.org/2000/svg">
<g clip-path="url(#clip0_1505_433)">
<path d="M41.224 37.7967V40.6089H32.1346V29.5498H41.0209V32.3618H35.758V33.6574H40.3805V36.3432H35.758V37.7967H41.224Z" fill="black"/>
<path d="M53.1604 32.4669H49.9589V40.6349H46.3356V32.4669H43.1341V29.5758H53.1604V32.4669Z" fill="black"/>
<path fill-rule="evenodd" clip-rule="evenodd" d="M56.1744 0.986536C57.3299 2.23981 57.2625 4.20349 56.0236 5.37253C53.984 7.29701 53.2969 10.075 53.8077 13.8031C54.3241 17.5736 56.0245 21.8218 58.1237 25.8782C60.2022 29.8945 62.557 33.5091 64.2222 36.0026C64.4029 36.2735 64.5802 36.5378 64.7508 36.792C65.3281 37.6525 65.8275 38.3968 66.1229 38.8857C66.2225 39.0506 66.3451 39.261 66.4503 39.4786C66.5014 39.5842 66.5819 39.7594 66.6523 39.9741L66.655 39.9817C66.6981 40.1129 66.8813 40.6682 66.8012 41.3753C66.7543 41.7903 66.5923 42.4645 66.0524 43.0874C65.4747 43.7536 64.7412 44.0433 64.1364 44.1249C63.2112 44.2501 62.5063 43.91 62.3731 43.8457C62.3688 43.8437 62.3652 43.842 62.3621 43.8406C61.9597 43.6488 61.6402 43.3917 61.5232 43.2977L61.5211 43.2961C58.998 41.2675 55.4764 38.2203 51.6208 34.8845C48.1442 31.8764 44.3961 28.6336 40.8643 25.691C37.3029 22.7236 33.8967 20.0028 31.001 17.9359C34.3869 21.909 38.67 26.2537 40.82 28.4344C40.9325 28.5486 41.0391 28.6569 41.1396 28.7588C43.349 31.0017 48.5301 37.0278 51.9922 42.3366C52.8661 43.6767 53.6637 45.0211 54.2841 46.2851C54.882 47.5035 55.4174 48.8483 55.5988 50.1434C55.7728 51.3855 55.7078 53.4569 53.9307 54.83C52.3768 56.0306 50.4389 55.9122 49.0511 55.6473C47.266 55.3063 45.4481 54.3462 43.75 53.2254C42.0004 52.0705 40.1216 50.5694 38.1837 48.8845C34.7526 45.901 30.9266 42.1535 27.0604 38.3666C26.5698 37.8862 26.0787 37.4051 25.5877 36.9249C21.18 32.6145 16.7534 28.3467 12.6287 24.9407C8.41195 21.4585 4.89088 19.2072 2.28513 18.5111C0.647097 18.0735 -0.330135 16.3754 0.102424 14.7184C0.534983 13.0613 2.21353 12.0727 3.85156 12.5103C7.84247 13.5764 12.248 16.6146 16.5083 20.1326C20.8605 23.7264 25.4614 28.169 29.8518 32.4626C30.3453 32.9452 30.8359 33.4258 31.3233 33.9029C35.2167 37.7159 38.9002 41.3232 42.1828 44.1778C44.0251 45.7797 45.674 47.0844 47.1026 48.0275C47.7465 48.4526 48.3015 48.7741 48.7721 49.0112C48.3019 48.0581 47.6537 46.9547 46.871 45.7543C43.6689 40.844 38.7605 35.1364 36.7938 33.1398C36.688 33.0324 36.5742 32.917 36.4531 32.7943C34.2121 30.5214 29.4504 25.6924 25.8291 21.3668C23.9733 19.1501 22.1874 16.8005 21.2921 14.9017C21.0568 14.4029 20.8309 13.8291 20.6997 13.2202C20.5747 12.6406 20.4791 11.7724 20.7823 10.8408C21.1297 9.77303 21.8912 8.96368 22.8591 8.52768C23.7043 8.1469 24.5524 8.11535 25.1826 8.15786C26.6004 8.25349 28.0863 8.89753 29.3644 9.57125C30.736 10.2945 32.2709 11.2747 33.8871 12.4046C37.1245 14.6681 40.9178 17.6949 44.7648 20.9002C47.1092 22.8536 49.4507 24.852 51.7115 26.799C49.8803 22.9825 48.2923 18.7548 47.7306 14.6551C47.065 9.79733 47.8012 4.64383 51.8388 0.833979C53.0777 -0.335053 55.0188 -0.266752 56.1744 0.986536Z" fill="#FF47D6"/>
<path fill-rule="evenodd" clip-rule="evenodd" d="M56.1744 0.986536C57.3299 2.23981 57.2625 4.20349 56.0236 5.37253C53.984 7.29701 53.2969 10.075 53.8077 13.8031C54.3241 17.5736 56.0245 21.8218 58.1237 25.8782C60.2022 29.8945 62.557 33.5091 64.2222 36.0026C64.4029 36.2735 64.5802 36.5378 64.7508 36.792C65.3281 37.6525 65.8275 38.3968 66.1229 38.8857C66.2225 39.0506 66.3451 39.261 66.4503 39.4786C66.5014 39.5842 66.5819 39.7594 66.6523 39.9741L66.655 39.9817C66.6981 40.1129 66.8813 40.6682 66.8012 41.3753C66.7543 41.7903 66.5923 42.4645 66.0524 43.0874C65.4747 43.7536 64.7412 44.0433 64.1364 44.1249C63.2112 44.2501 62.5063 43.91 62.3731 43.8457C62.3688 43.8437 62.3652 43.842 62.3621 43.8406C61.9597 43.6488 61.6402 43.3917 61.5232 43.2977L61.5211 43.2961C58.998 41.2675 55.4764 38.2203 51.6208 34.8845C48.1442 31.8764 44.3961 28.6336 40.8643 25.691C37.3029 22.7236 33.8967 20.0028 31.001 17.9359C34.3869 21.909 38.67 26.2537 40.82 28.4344C40.9325 28.5486 41.0391 28.6569 41.1396 28.7588C43.349 31.0017 48.5301 37.0278 51.9922 42.3366C52.8661 43.6767 53.6637 45.0211 54.2841 46.2851C54.882 47.5035 55.4174 48.8483 55.5988 50.1434C55.7728 51.3855 55.7078 53.4569 53.9307 54.83C52.3768 56.0306 50.4389 55.9122 49.0511 55.6473C47.266 55.3063 45.4481 54.3462 43.75 53.2254C42.0004 52.0705 40.1216 50.5694 38.1837 48.8845C34.7526 45.901 30.9266 42.1535 27.0604 38.3666C26.5698 37.8862 26.0787 37.4051 25.5877 36.9249C21.18 32.6145 16.7534 28.3467 12.6287 24.9407C8.41195 21.4585 4.89088 19.2072 2.28513 18.5111C0.647097 18.0735 -0.330135 16.3754 0.102424 14.7184C0.534983 13.0613 2.21353 12.0727 3.85156 12.5103C7.84247 13.5764 12.248 16.6146 16.5083 20.1326C20.8605 23.7264 25.4614 28.169 29.8518 32.4626C30.3453 32.9452 30.8359 33.4258 31.3233 33.9029C35.2167 37.7159 38.9002 41.3232 42.1828 44.1778C44.0251 45.7797 45.674 47.0844 47.1026 48.0275C47.7465 48.4526 48.3015 48.7741 48.7721 49.0112C48.3019 48.0581 47.6537 46.9547 46.871 45.7543C43.6689 40.844 38.7605 35.1364 36.7938 33.1398C36.688 33.0324 36.5742 32.917 36.4531 32.7943C34.2121 30.5214 29.4504 25.6924 25.8291 21.3668C23.9733 19.1501 22.1874 16.8005 21.2921 14.9017C21.0568 14.4029 20.8309 13.8291 20.6997 13.2202C20.5747 12.6406 20.4791 11.7724 20.7823 10.8408C21.1297 9.77303 21.8912 8.96368 22.8591 8.52768C23.7043 8.1469 24.5524 8.11535 25.1826 8.15786C26.6004 8.25349 28.0863 8.89753 29.3644 9.57125C30.736 10.2945 32.2709 11.2747 33.8871 12.4046C37.1245 14.6681 40.9178 17.6949 44.7648 20.9002C47.1092 22.8536 49.4507 24.852 51.7115 26.799C49.8803 22.9825 48.2923 18.7548 47.7306 14.6551C47.065 9.79733 47.8012 4.64383 51.8388 0.833979C53.0777 -0.335053 55.0188 -0.266752 56.1744 0.986536Z" fill="url(#paint0_radial_1505_433)" fill-opacity="0.98"/>
<mask id="mask0_1505_433" style="mask-type:alpha" maskUnits="userSpaceOnUse" x="43" y="29" width="11" height="12">
<path d="M53.1604 32.4669H49.9589V40.6349H46.3356V32.4669H43.1341V29.5758H53.1604V32.4669Z" fill="white"/>
</mask>
<g mask="url(#mask0_1505_433)">
<path d="M42.0833 26.3766L53.9309 39.8083H55.565L55.7693 26.3766H42.0833Z" fill="black"/>
</g>
<mask id="mask1_1505_433" style="mask-type:alpha" maskUnits="userSpaceOnUse" x="30" y="27" width="13" height="15">
<path d="M30.6443 27.8231L42.9004 40.9449L30.6443 41.5648V27.8231Z" fill="#C4C4C4"/>
</mask>
<g mask="url(#mask1_1505_433)">
<path d="M41.224 37.7967V40.6089H32.1347V29.5498H41.021V32.3618H35.758V33.6574H40.3806V36.3432H35.758V37.7967H41.224Z" fill="black"/>
</g>
<g opacity="0.32" filter="url(#filter0_f_1505_433)">
<path d="M43.271 44.8C46.8456 47.5897 49.6417 49.3365 49.8678 48.6926C49.2356 50.828 46.9629 54.5881 45.1576 51.5734C43.1463 48.215 42.4461 46.7148 43.271 44.8Z" fill="url(#paint1_linear_1505_433)"/>
</g>
<g opacity="0.32" filter="url(#filter1_f_1505_433)">
<path d="M38.4143 16.2707C34.054 15.9741 30.6323 17.0631 30.9466 17.6679C29.824 15.7497 28.9193 11.3538 32.1616 12.6438C35.4407 13.9484 37.177 14.8783 38.4143 16.2707Z" fill="url(#paint2_linear_1505_433)"/>
</g>
<path d="M13.5455 40.7546C12.6398 40.7546 11.7548 40.6546 10.8906 40.4545C10.0369 40.2438 9.3341 39.9648 8.78229 39.6172L9.96919 36.8997C10.4898 37.2053 11.0728 37.4526 11.7183 37.6423C12.3638 37.8213 12.9833 37.9108 13.5768 37.9108C14.0869 37.9108 14.4513 37.8635 14.67 37.7686C14.8886 37.6634 14.9979 37.5107 14.9979 37.3105C14.9979 37.0788 14.8522 36.905 14.5607 36.7891C14.2796 36.6734 13.811 36.5469 13.1551 36.4099C12.3118 36.231 11.609 36.0413 11.0468 35.8413C10.4846 35.6307 9.99523 35.2936 9.57877 34.8302C9.16231 34.3561 8.95408 33.719 8.95408 32.9185C8.95408 32.2234 9.14668 31.5915 9.53191 31.0226C9.91714 30.4539 10.4898 30.0063 11.2498 29.6798C12.0203 29.3533 12.9521 29.1901 14.0453 29.1901C14.7949 29.1901 15.5289 29.2742 16.2473 29.4428C16.9761 29.6007 17.6164 29.8377 18.1682 30.1536L17.0594 32.8553C15.987 32.3077 14.9719 32.0337 14.014 32.0337C13.0666 32.0337 12.5929 32.2655 12.5929 32.7288C12.5929 32.9501 12.7334 33.1185 13.0146 33.2345C13.2957 33.3398 13.759 33.4556 14.4045 33.582C15.2374 33.7399 15.9402 33.9242 16.5128 34.135C17.0854 34.335 17.58 34.6669 17.9964 35.1302C18.4233 35.5937 18.6368 36.2256 18.6368 37.0261C18.6368 37.7213 18.4441 38.3532 18.0589 38.9221C17.6737 39.4802 17.0959 39.9278 16.3254 40.2648C15.5654 40.5913 14.6387 40.7546 13.5455 40.7546ZM31.4152 29.4428L26.7924 40.5019H23.1693L18.5466 29.4428H22.5134L25.1215 35.9045L27.7919 29.4428H31.4152Z" fill="black"/>
</g>
<defs>
<filter id="filter0_f_1505_433" x="37.5686" y="39.4367" width="17.6626" height="18.6258" filterUnits="userSpaceOnUse" color-interpolation-filters="sRGB">
<feFlood flood-opacity="0" result="BackgroundImageFix"/>
<feBlend mode="normal" in="SourceGraphic" in2="BackgroundImageFix" result="shape"/>
<feGaussianBlur stdDeviation="2.68169" result="effect1_foregroundBlur_1505_433"/>
</filter>
<filter id="filter1_f_1505_433" x="24.5518" y="7.04726" width="19.2259" height="15.984" filterUnits="userSpaceOnUse" color-interpolation-filters="sRGB">
<feFlood flood-opacity="0" result="BackgroundImageFix"/>
<feBlend mode="normal" in="SourceGraphic" in2="BackgroundImageFix" result="shape"/>
<feGaussianBlur stdDeviation="2.68169" result="effect1_foregroundBlur_1505_433"/>
</filter>
<radialGradient id="paint0_radial_1505_433" cx="0" cy="0" r="1" gradientUnits="userSpaceOnUse" gradientTransform="translate(41.0967 53.4763) rotate(-18.3333) scale(41.6887 129.827)">
<stop stop-color="#FF0000"/>
<stop offset="0.4375" stop-color="#FFA800"/>
<stop offset="1" stop-color="#FF47D6"/>
</radialGradient>
<linearGradient id="paint1_linear_1505_433" x1="53.563" y1="51.873" x2="42.32" y2="44.8395" gradientUnits="userSpaceOnUse">
<stop/>
<stop offset="1" stop-opacity="0"/>
</linearGradient>
<linearGradient id="paint2_linear_1505_433" x1="26.2436" y1="18.689" x2="39.0329" y2="15.3085" gradientUnits="userSpaceOnUse">
<stop/>
<stop offset="1" stop-opacity="0"/>
</linearGradient>
<clipPath id="clip0_1505_433">
<rect width="67" height="56" fill="white"/>
</clipPath>
</defs>
</svg>
